<svg width="578" height="578" xmlns="http://www.w3.org/2000/svg" xmlns:xlink="http://www.w3.org/1999/xlink" overflow="hidden"><defs><clipPath id="clip0"><rect x="351" y="71" width="578" height="578"/></clipPath></defs><g clip-path="url(#clip0)" transform="translate(-351 -71)"><path d="M408 378.5C408 261.692 502.692 167 619.5 167 736.308 167 831 261.692 831 378.5 831 495.308 736.308 590 619.5 590 502.692 590 408 495.308 408 378.5Z" fill="#FFC000" fill-rule="evenodd"/><path d="M834.856 445.854C790.096 553.491 666.346 604.548 558.454 559.894 450.562 515.24 399.384 391.783 444.144 284.146 488.904 176.509 612.654 125.452 720.546 170.106 733.155 175.325 745.228 181.749 756.597 189.29L740.133 213.994C656.505 158.569 543.656 181.245 488.078 264.643 432.5 348.042 455.239 460.58 538.867 516.006 622.495 571.431 735.344 548.754 790.922 465.356 797.407 455.625 802.934 445.292 807.425 434.5Z" fill-rule="evenodd"/><path d="M579 324C579 316.268 585.268 310 593 310 600.732 310 607 316.268 607 324 607 331.732 600.732 338 593 338 585.268 338 579 331.732 579 324Z" fill-rule="evenodd"/><path d="M722 324C722 316.268 728.268 310 736 310 743.732 310 750 316.268 750 324 750 331.732 743.732 338 736 338 728.268 338 722 331.732 722 324Z" fill-rule="evenodd"/><path d="M807.027 451.719 807.027 451.719C802.339 444.447 804.434 434.751 811.706 430.064L877.781 387.471C885.054 382.783 894.749 384.878 899.437 392.15L899.437 392.15C904.125 399.422 902.03 409.118 894.758 413.806L828.683 456.399C821.41 461.087 811.715 458.992 807.027 451.719Z" fill-rule="evenodd"/><path d="M586 424.315C586 411.991 595.991 402 608.315 402L629.685 402C642.009 402 652 411.991 652 424.315L652 440.685C652 453.009 642.009 463 629.685 463L608.315 463C595.991 463 586 453.009 586 440.685Z" stroke="#000000" stroke-width="20" stroke-miterlimit="8" fill="none" fill-rule="evenodd"/><path d="M517 300 517 300C517 294.477 521.477 290 527 290L610 290C615.523 290 620 294.477 620 300L620 300C620 305.523 615.523 310 610 310L527 310C521.477 310 517 305.523 517 300Z" fill-rule="evenodd"/><path d="M646 300 646 300C646 294.477 650.477 290 656 290L739 290C744.523 290 749 294.477 749 300L749 300C749 305.523 744.523 310 739 310L656 310C650.477 310 646 305.523 646 300Z" fill-rule="evenodd"/></g></svg>